<?xml version="1.0" encoding="UTF-8"?>
<svg xmlns="http://www.w3.org/2000/svg" xmlns:xlink="http://www.w3.org/1999/xlink" width="122px" height="120px" viewBox="0 0 121 120" version="1.1">
<g id="surface1">
<path style=" stroke:none;fill-rule:nonzero;fill:rgb(0%,0%,0%);fill-opacity:1;" d="M 58.671875 1.695312 C 56.292969 2.953125 54.417969 6.144531 53.117188 11.105469 C 52.710938 12.652344 52.300781 14.007812 52.203125 14.105469 C 52.082031 14.226562 51.675781 13.886719 51.3125 13.378906 C 48.09375 9.023438 45.6875 6.484375 43.882812 5.492188 C 41.117188 3.96875 38.355469 4.910156 37.390625 7.71875 C 36.789062 9.507812 36.527344 13.332031 36.789062 16.597656 C 36.910156 18.167969 36.933594 19.546875 36.839844 19.644531 C 36.742188 19.742188 35.804688 19.210938 34.746094 18.460938 C 29 14.371094 24.429688 13.160156 22.289062 15.144531 C 21.257812 16.113281 20.824219 17.152344 20.847656 18.628906 C 20.871094 20.371094 21.859375 23.683594 23.347656 26.976562 C 24.695312 30 24.765625 30.386719 23.996094 30.121094 C 20.292969 28.933594 18.011719 28.523438 15.027344 28.476562 C 12.09375 28.425781 11.832031 28.476562 10.820312 29.03125 C 7.019531 31.183594 8.152344 35.273438 14.257812 41.539062 C 15.703125 43.015625 16.328125 43.816406 16.085938 43.863281 C 15.894531 43.933594 14.308594 44.152344 12.550781 44.394531 C 7.648438 45.023438 3.917969 46.425781 2.667969 48.144531 C 0.457031 51.195312 3.460938 54.773438 11.300781 58.425781 C 13.273438 59.347656 13.515625 59.492188 13.34375 59.757812 C 13.273438 59.878906 12.191406 60.460938 10.917969 61.066406 C 6.492188 63.167969 4.085938 64.863281 2.910156 66.726562 C 0.121094 71.175781 3.945312 73.984375 14.402344 75.195312 C 15.246094 75.289062 15.992188 75.484375 16.039062 75.628906 C 16.085938 75.773438 15.195312 76.886719 14.042969 78.097656 C 10.292969 82.089844 8.65625 84.75 8.65625 86.855469 C 8.65625 90.796875 13.488281 91.910156 21.691406 89.878906 C 23.035156 89.539062 24.214844 89.273438 24.3125 89.273438 C 24.71875 89.273438 24.527344 89.925781 23.542969 92.082031 C 21.738281 95.976562 20.75 99.726562 21.039062 101.589844 C 21.472656 104.492188 22.988281 105.484375 26.28125 105.023438 C 28.398438 104.734375 32.292969 102.871094 34.363281 101.152344 C 35.105469 100.523438 35.996094 99.894531 36.359375 99.75 L 36.984375 99.460938 L 36.957031 104.710938 C 36.910156 109.210938 36.984375 110.128906 37.34375 111.21875 C 37.898438 112.839844 38.523438 113.589844 39.75 114.21875 C 41.71875 115.257812 43.859375 114.339844 47.011719 111.167969 C 48.210938 109.984375 49.75 108.097656 50.472656 106.984375 C 52.15625 104.394531 52.421875 104.417969 52.925781 107.296875 C 53.695312 111.605469 55.859375 115.960938 57.976562 117.386719 C 59.128906 118.160156 60.667969 118.304688 61.75 117.726562 C 62.472656 117.339844 63.867188 115.910156 64.613281 114.796875 C 65.332031 113.710938 66.824219 109.765625 67.425781 107.347656 C 67.714844 106.160156 68.027344 105.195312 68.171875 105.167969 C 68.289062 105.144531 69.277344 106.304688 70.359375 107.78125 C 73.582031 112.113281 76.371094 114.339844 78.945312 114.605469 C 80.027344 114.726562 81.035156 114.167969 81.949219 112.960938 C 83.296875 111.195312 83.945312 106.863281 83.464844 102.554688 C 83.296875 100.933594 83.273438 99.75 83.390625 99.628906 C 83.511719 99.507812 83.898438 99.652344 84.304688 99.992188 C 86.519531 101.832031 90.703125 104.152344 93.035156 104.855469 C 97.722656 106.257812 100.152344 103.5 98.972656 98.128906 C 98.515625 96.074219 97.289062 92.78125 96.328125 91.066406 C 95.199219 89.054688 95.4375 88.933594 98.757812 89.878906 C 100.777344 90.433594 105.683594 91.039062 106.667969 90.847656 C 106.910156 90.796875 107.65625 90.675781 108.28125 90.605469 C 109.746094 90.410156 111.214844 89.175781 111.574219 87.796875 C 112.128906 85.742188 110.179688 82.160156 106.355469 78.144531 C 105.128906 76.839844 104.121094 75.675781 104.121094 75.554688 C 104.121094 75.410156 104.914062 75.242188 105.875 75.144531 C 111.886719 74.566406 115.589844 73.378906 117.464844 71.371094 C 118.089844 70.71875 118.1875 70.425781 118.1875 69.242188 C 118.164062 66.824219 116.574219 65.105469 111.8125 62.347656 C 110.5625 61.644531 108.90625 60.796875 108.136719 60.484375 C 107.390625 60.167969 106.789062 59.78125 106.835938 59.660156 C 106.886719 59.515625 107.847656 59.007812 108.976562 58.523438 C 113.015625 56.804688 116.597656 54.242188 117.824219 52.210938 C 118.378906 51.265625 118.449219 49.621094 117.96875 48.675781 C 116.816406 46.476562 113.472656 45.097656 107.558594 44.394531 C 105.875 44.203125 104.433594 43.960938 104.335938 43.863281 C 104.214844 43.742188 105.226562 42.53125 106.574219 41.128906 C 109.050781 38.539062 110.875 35.804688 111.359375 33.992188 C 112.464844 29.925781 109.554688 27.871094 103.640625 28.546875 C 101.113281 28.839844 98.492188 29.371094 97.050781 29.925781 C 96.496094 30.121094 96.015625 30.167969 95.894531 30.046875 C 95.777344 29.925781 96.113281 28.933594 96.6875 27.675781 C 99.261719 22.039062 99.960938 18.21875 98.757812 16.113281 C 98.132812 15 96.519531 14.03125 95.292969 14.03125 C 93.058594 14.03125 87.960938 16.5 84.570312 19.210938 C 84.015625 19.667969 83.585938 19.839844 83.441406 19.695312 C 83.296875 19.546875 83.320312 18.316406 83.488281 16.378906 C 83.800781 12.75 83.488281 9.195312 82.71875 7.453125 C 82.164062 6.167969 80.890625 4.960938 79.882812 4.742188 C 77.378906 4.183594 73.988281 6.605469 70.191406 11.734375 C 69.203125 13.039062 68.316406 14.082031 68.171875 14.03125 C 68.050781 13.960938 67.691406 12.945312 67.378906 11.734375 C 66.007812 6.410156 64.058594 2.925781 61.796875 1.765625 C 60.5 1.113281 59.777344 1.089844 58.671875 1.695312 Z M 61.390625 2.804688 C 63.167969 3.652344 64.78125 7.089844 66.488281 13.695312 L 67.136719 16.136719 L 65.886719 18.652344 C 64.15625 22.183594 62.59375 25.789062 61.414062 29.03125 C 60.859375 30.554688 60.285156 31.816406 60.117188 31.816406 C 59.945312 31.816406 59.464844 30.773438 59.03125 29.515625 C 58.023438 26.539062 57.132812 24.433594 54.945312 19.839844 L 53.164062 16.089844 L 53.742188 13.667969 C 54.679688 9.871094 55.066406 8.734375 56.027344 6.652344 C 57.085938 4.402344 57.734375 3.507812 58.769531 2.878906 C 59.683594 2.324219 60.332031 2.296875 61.390625 2.804688 Z M 43.234375 6.460938 C 44.675781 7.136719 47.828125 10.546875 49.871094 13.597656 L 51.769531 16.453125 L 51.386719 19.765625 C 51.171875 21.605469 50.953125 25.5 50.90625 28.402344 C 50.859375 31.742188 50.738281 33.75 50.59375 33.796875 C 50.449219 33.847656 49.605469 32.925781 48.695312 31.765625 C 47.78125 30.582031 45.109375 27.703125 42.777344 25.355469 C 37.777344 20.347656 38.136719 21.265625 38.136719 14.152344 C 38.136719 9.96875 38.183594 9.433594 38.691406 8.175781 C 38.980469 7.402344 39.460938 6.605469 39.75 6.410156 C 40.445312 5.925781 42.175781 5.953125 43.234375 6.460938 Z M 80.769531 6.675781 C 81.878906 8.082031 82.117188 9.484375 82.117188 14.394531 C 82.09375 20.589844 82.019531 21.046875 80.601562 22.332031 C 78.703125 24.023438 74.613281 28.28125 72.210938 31.089844 C 70.9375 32.539062 69.828125 33.773438 69.734375 33.824219 C 69.636719 33.847656 69.492188 31.183594 69.421875 27.894531 C 69.347656 23.757812 69.179688 21.097656 68.867188 19.304688 L 68.433594 16.71875 L 69.855469 14.589844 C 71.800781 11.636719 74.132812 8.636719 75.070312 7.933594 C 77.234375 6.289062 77.71875 6.046875 79.015625 6.046875 C 80.074219 6.046875 80.363281 6.144531 80.769531 6.675781 Z M 28.398438 16.257812 C 29.578125 16.71875 31.644531 17.925781 33.738281 19.355469 C 37.609375 21.992188 37.269531 21.484375 38.472656 26.734375 C 38.90625 28.597656 39.554688 30.96875 39.941406 31.984375 C 40.324219 33.023438 40.972656 34.765625 41.382812 35.832031 C 41.769531 36.917969 42.054688 37.960938 41.984375 38.128906 C 41.816406 38.566406 41.429688 38.394531 39.074219 36.917969 C 36.789062 35.492188 31.1875 32.78125 28.542969 31.816406 L 26.644531 31.136719 L 25.03125 27.726562 C 22.867188 23.175781 22.507812 21.96875 22.484375 19.039062 C 22.484375 16.71875 22.507812 16.644531 23.15625 16.066406 C 24.140625 15.195312 25.921875 15.265625 28.398438 16.257812 Z M 97.265625 16.066406 C 98.878906 17.683594 97.988281 22.546875 95.007812 28.332031 L 93.585938 31.089844 L 91.6875 31.839844 C 87.9375 33.339844 82.960938 35.78125 80.867188 37.113281 C 79.039062 38.273438 77.910156 38.757812 77.910156 38.371094 C 77.910156 38.324219 78.125 37.742188 78.414062 37.089844 C 79.710938 34.113281 81.804688 27.167969 82.359375 24.097656 C 82.550781 23.03125 82.789062 22.113281 82.910156 22.039062 C 83.007812 21.96875 83.96875 21.242188 85.027344 20.417969 C 89.210938 17.175781 92.699219 15.507812 95.175781 15.484375 C 96.449219 15.484375 96.785156 15.582031 97.265625 16.066406 Z M 54.777344 22.304688 C 56.4375 26.054688 57.589844 28.960938 58.671875 32.175781 L 59.441406 34.5 L 58.578125 37.816406 C 58.09375 39.628906 57.710938 41.445312 57.710938 41.804688 C 57.710938 42.195312 57.566406 42.703125 57.375 42.945312 C 57.085938 43.355469 56.84375 43.066406 54.5625 39.652344 L 52.058594 35.925781 L 52.058594 30.363281 C 52.082031 25.597656 52.46875 19.886719 52.828125 19.28125 C 53.09375 18.824219 53.429688 19.332031 54.777344 22.304688 Z M 67.808594 21.046875 C 68.195312 23.347656 68.410156 34.476562 68.074219 35.683594 C 67.929688 36.21875 67.402344 37.160156 66.921875 37.765625 C 66.414062 38.371094 65.40625 39.871094 64.683594 41.105469 C 63.960938 42.316406 63.242188 43.304688 63.097656 43.304688 C 62.929688 43.304688 62.6875 42.582031 62.519531 41.660156 C 62.351562 40.765625 61.96875 39 61.628906 37.742188 C 61.292969 36.484375 60.957031 35.203125 60.910156 34.933594 C 60.789062 34.402344 62.929688 28.304688 64.730469 23.953125 C 65.933594 21.074219 67.089844 19.015625 67.351562 19.28125 C 67.449219 19.378906 67.664062 20.175781 67.808594 21.046875 Z M 43.140625 27.386719 C 46.046875 30.410156 50.207031 35.296875 50.6875 36.195312 C 50.832031 36.460938 51.074219 37.984375 51.21875 39.582031 C 51.363281 41.152344 51.578125 42.992188 51.675781 43.667969 C 51.890625 44.878906 51.84375 45.242188 51.484375 45.242188 C 51.3125 45.242188 47.441406 42.433594 45.253906 40.742188 C 44.796875 40.378906 44.195312 39.53125 43.859375 38.757812 C 42.226562 35.105469 39.027344 24.96875 39.292969 24.265625 C 39.507812 23.710938 40.132812 24.21875 43.140625 27.386719 Z M 80.554688 26.515625 C 79.855469 29.296875 78.65625 32.953125 77.164062 36.75 C 75.890625 39.945312 75.457031 40.546875 73.246094 42.023438 C 72.714844 42.363281 72.1875 42.726562 72.042969 42.847656 C 71.898438 42.96875 71.152344 43.546875 70.40625 44.152344 C 68.316406 45.796875 68.148438 45.675781 68.652344 42.796875 C 68.84375 41.683594 69.085938 39.773438 69.203125 38.566406 L 69.421875 36.339844 L 71.441406 33.847656 C 74.785156 29.660156 80.507812 23.804688 80.867188 24.167969 C 80.988281 24.289062 80.84375 25.355469 80.554688 26.515625 Z M 21.402344 30.675781 C 25.875 31.863281 26.042969 31.960938 27.148438 33.96875 C 28.328125 36.144531 30.25 38.757812 33.375 42.433594 C 35.851562 45.363281 36.308594 46.160156 35.300781 45.871094 C 32.316406 45.074219 26.136719 44.273438 22.601562 44.25 C 18.707031 44.226562 18.660156 44.203125 16.496094 42.121094 C 13.5625 39.339844 11.878906 37.355469 10.941406 35.539062 C 9.449219 32.660156 9.570312 30.917969 11.375 30.097656 C 12.71875 29.492188 18.035156 29.804688 21.402344 30.675781 Z M 108.617188 30.121094 C 110.082031 30.726562 110.371094 31.136719 110.371094 32.492188 C 110.371094 34.765625 107.847656 38.492188 103.902344 42.097656 C 102.941406 42.96875 101.882812 43.789062 101.523438 43.960938 C 101.160156 44.128906 99.839844 44.25 98.589844 44.273438 C 95.582031 44.273438 91.183594 44.660156 89.089844 45.097656 C 88.175781 45.289062 86.976562 45.507812 86.445312 45.605469 C 85.917969 45.675781 85.242188 45.824219 84.953125 45.894531 C 84.28125 46.039062 84.210938 45.460938 84.8125 44.976562 C 85.84375 44.105469 91.039062 37.304688 93.082031 34.113281 C 94.523438 31.886719 94.1875 32.105469 97.988281 30.945312 C 101.738281 29.78125 106.886719 29.394531 108.617188 30.121094 Z M 30.203125 33.726562 C 32.390625 34.621094 36.816406 36.894531 39.484375 38.492188 C 40.804688 39.265625 41.960938 39.917969 42.03125 39.917969 C 42.128906 39.945312 42.488281 40.183594 42.851562 40.476562 C 43.621094 41.105469 47.441406 48.652344 47.15625 48.945312 C 47.058594 49.039062 45.664062 48.703125 44.101562 48.195312 C 42.539062 47.660156 40.660156 47.105469 39.941406 46.933594 C 38.90625 46.695312 38.402344 46.378906 37.535156 45.484375 C 34.675781 42.53125 28.375 34.257812 28.375 33.433594 C 28.375 33.023438 28.566406 33.046875 30.203125 33.726562 Z M 91.855469 33.582031 C 91.855469 34.28125 89.476562 37.597656 85.605469 42.21875 C 83.078125 45.242188 81.636719 46.667969 80.867188 46.839844 C 79.542969 47.128906 76.324219 48.097656 74.832031 48.652344 C 72.761719 49.425781 72.621094 49.160156 73.820312 46.910156 C 74.375 45.917969 75.242188 44.226562 75.769531 43.113281 C 76.492188 41.636719 76.996094 40.933594 77.621094 40.5 C 80.050781 38.832031 82.71875 37.304688 86.207031 35.589844 C 91.929688 32.804688 91.855469 32.832031 91.855469 33.582031 Z M 60.453125 37.910156 C 60.910156 39.484375 61.582031 43.644531 61.605469 45.097656 C 61.605469 46.523438 61.511719 47.054688 60.980469 48.074219 C 60.644531 48.75 60.257812 49.378906 60.117188 49.476562 C 59.828125 49.644531 59.25 48.386719 58.769531 46.621094 C 58.527344 45.652344 58.527344 45.046875 58.816406 43.113281 C 59.128906 40.910156 59.5625 38.492188 59.777344 37.789062 C 59.898438 37.355469 60.308594 37.425781 60.453125 37.910156 Z M 53.527344 40.113281 C 56.988281 45.363281 57.085938 45.628906 56.894531 47.878906 C 56.820312 48.871094 56.652344 49.789062 56.53125 49.910156 C 56.316406 50.128906 55.835938 49.742188 54.390625 48.121094 C 53.765625 47.417969 53.023438 44.832031 52.804688 42.703125 C 52.734375 41.902344 52.613281 40.742188 52.515625 40.089844 C 52.421875 39.460938 52.445312 38.953125 52.566406 38.953125 C 52.683594 38.953125 53.117188 39.460938 53.527344 40.113281 Z M 68.050781 39.386719 C 68.050781 40.234375 66.945312 46.210938 66.632812 46.960938 C 66.511719 47.273438 65.886719 48.121094 65.261719 48.824219 C 63.792969 50.492188 63.457031 50.273438 63.410156 47.492188 C 63.363281 45.582031 63.386719 45.582031 64.660156 43.425781 C 66.535156 40.210938 67.425781 38.976562 67.761719 38.953125 C 67.90625 38.953125 68.050781 39.144531 68.050781 39.386719 Z M 48.980469 44.855469 C 52.253906 47.347656 52.566406 47.734375 53.117188 49.839844 C 53.382812 50.832031 53.503906 51.75 53.40625 51.847656 C 53.164062 52.089844 50.183594 50.683594 49.726562 50.128906 C 48.71875 48.917969 45.878906 43.574219 46.074219 43.257812 C 46.3125 42.894531 46.601562 43.066406 48.980469 44.855469 Z M 74.300781 43.355469 C 74.277344 43.644531 73.53125 45.097656 71.707031 48.410156 C 71.273438 49.136719 70.742188 49.933594 70.527344 50.128906 C 69.949219 50.613281 67.113281 51.871094 66.945312 51.703125 C 66.679688 51.460938 67.402344 48.628906 67.90625 47.953125 C 68.410156 47.25 72.355469 43.839844 73.21875 43.355469 C 73.871094 42.992188 74.300781 42.992188 74.300781 43.355469 Z M 18.585938 45.628906 C 19.019531 45.871094 19.789062 46.402344 20.320312 46.816406 C 21.832031 48.074219 27.101562 51.507812 29.890625 53.105469 C 31.308594 53.902344 32.414062 54.652344 32.367188 54.796875 C 32.34375 54.917969 31.835938 55.113281 31.234375 55.234375 C 25.152344 56.324219 21.425781 57.21875 17.914062 58.453125 C 15.964844 59.152344 15.964844 59.152344 12.457031 57.652344 C 9.714844 56.492188 6.46875 54.628906 5.050781 53.417969 C 3.148438 51.75 2.644531 49.960938 3.726562 48.675781 C 5.195312 46.910156 8.535156 45.992188 15.507812 45.410156 C 17.554688 45.242188 17.84375 45.265625 18.585938 45.628906 Z M 29.480469 46.113281 C 36.789062 47.128906 38.449219 47.683594 40.179688 49.839844 C 40.636719 50.371094 41.792969 51.460938 42.753906 52.28125 C 43.714844 53.082031 44.4375 53.832031 44.363281 53.953125 C 44.269531 54.097656 43.1875 54.195312 41.914062 54.195312 C 40.636719 54.195312 38.667969 54.316406 37.535156 54.460938 L 35.46875 54.75 L 32.582031 53.226562 C 29.625 51.652344 24.695312 48.605469 22.964844 47.296875 C 22.433594 46.910156 21.738281 46.402344 21.425781 46.183594 C 19.8125 45.144531 22.195312 45.121094 29.480469 46.113281 Z M 108.808594 45.871094 C 114.53125 46.621094 117.417969 48.339844 116.984375 50.757812 C 116.742188 52.066406 114.171875 54.507812 111.695312 55.816406 C 108.542969 57.460938 105.296875 58.789062 104.457031 58.789062 C 104.023438 58.789062 102.699219 58.476562 101.546875 58.113281 C 98.539062 57.121094 94.644531 56.175781 91.039062 55.574219 C 89.332031 55.28125 87.886719 54.917969 87.839844 54.796875 C 87.769531 54.554688 88.152344 54.339844 91.132812 52.695312 C 92.335938 52.039062 97.050781 48.894531 100.632812 46.378906 L 102.074219 45.363281 L 104.121094 45.433594 C 105.25 45.484375 107.367188 45.675781 108.808594 45.871094 Z M 99.308594 45.703125 C 99.308594 45.796875 99.070312 46.089844 98.78125 46.304688 C 98.46875 46.523438 97.578125 47.175781 96.808594 47.757812 C 94.933594 49.160156 90.964844 51.53125 87.527344 53.273438 L 84.761719 54.703125 L 83.199219 54.460938 C 82.332031 54.316406 80.363281 54.195312 78.824219 54.195312 C 77.285156 54.195312 75.960938 54.097656 75.890625 54 C 75.722656 53.734375 75.9375 53.492188 77.546875 52.160156 C 78.34375 51.484375 79.808594 50.175781 80.792969 49.234375 L 82.597656 47.515625 L 86.6875 46.742188 C 88.945312 46.304688 91.6875 45.871094 92.816406 45.75 C 95.605469 45.484375 99.308594 45.433594 99.308594 45.703125 Z M 42.609375 48.992188 C 44.703125 49.476562 48.042969 50.710938 48.933594 51.339844 C 49.847656 51.96875 51.289062 54.121094 51.121094 54.582031 C 50.953125 55.015625 50.496094 55.015625 48.378906 54.507812 C 46.527344 54.074219 46.699219 54.195312 42.511719 50.492188 C 41.335938 49.453125 40.660156 48.628906 41 48.628906 C 41.046875 48.628906 41.769531 48.796875 42.609375 48.992188 Z M 79.351562 48.894531 C 79.351562 49.039062 78.945312 49.5 78.460938 49.960938 C 77.957031 50.394531 76.804688 51.410156 75.890625 52.234375 C 74.015625 53.878906 73.003906 54.433594 71.945312 54.433594 C 71.539062 54.433594 70.910156 54.554688 70.550781 54.675781 C 69.855469 54.945312 69.011719 54.796875 69.011719 54.410156 C 69.011719 54.097656 70.71875 51.773438 71.320312 51.265625 C 71.730469 50.925781 75.289062 49.546875 77.429688 48.917969 C 78.558594 48.582031 79.351562 48.582031 79.351562 48.894531 Z M 58.914062 49.839844 C 59.417969 50.855469 59.5625 52.621094 59.128906 52.863281 C 58.382812 53.347656 57.445312 50.953125 57.808594 49.476562 C 58.023438 48.628906 58.335938 48.726562 58.914062 49.839844 Z M 62.472656 49.839844 C 62.519531 50.296875 62.496094 51 62.421875 51.410156 C 62.253906 52.257812 61.414062 53.324219 61.054688 53.105469 C 60.644531 52.839844 60.8125 50.804688 61.339844 49.816406 C 61.894531 48.675781 62.375 48.703125 62.472656 49.839844 Z M 55.882812 51.097656 C 56.796875 52.160156 57.109375 53.710938 56.414062 53.710938 C 55.929688 53.710938 54.824219 52.304688 54.824219 51.703125 C 54.824219 51.410156 54.753906 50.925781 54.679688 50.613281 C 54.441406 49.789062 54.945312 49.984375 55.882812 51.097656 Z M 65.765625 50.855469 C 65.453125 52.304688 64.949219 53.226562 64.324219 53.515625 C 63.457031 53.902344 63.21875 53.539062 63.601562 52.402344 C 63.960938 51.386719 65.070312 50.082031 65.597656 50.082031 C 65.839844 50.082031 65.886719 50.273438 65.765625 50.855469 Z M 68.773438 52.621094 C 68.773438 53.539062 66.824219 55.476562 66.03125 55.355469 C 65.1875 55.234375 65.261719 54.339844 66.175781 53.683594 C 67.378906 52.789062 68.773438 52.234375 68.773438 52.621094 Z M 54.054688 53.539062 C 55.355469 54.433594 55.332031 55.644531 54.007812 55.304688 C 53.261719 55.113281 51.941406 53.734375 51.941406 53.128906 C 51.941406 52.765625 52.058594 52.71875 52.613281 52.863281 C 52.972656 52.933594 53.621094 53.25 54.054688 53.539062 Z M 47.492188 56.007812 C 48.019531 56.324219 48.742188 56.710938 49.101562 56.855469 C 49.917969 57.195312 50.160156 57.847656 49.65625 58.210938 C 49.4375 58.378906 48.523438 58.644531 47.636719 58.789062 C 46.144531 59.03125 45.878906 59.007812 44.246094 58.476562 C 41.601562 57.582031 38.640625 56.296875 38.546875 55.960938 C 38.425781 55.621094 39.605469 55.523438 43.765625 55.453125 C 46.3125 55.402344 46.601562 55.453125 47.492188 56.007812 Z M 81.109375 55.546875 C 82.695312 55.816406 82.285156 56.128906 78.222656 57.675781 C 74.855469 58.960938 74.328125 59.054688 72.714844 58.765625 C 70.671875 58.402344 70.457031 58.332031 70.457031 57.871094 C 70.457031 57.433594 70.769531 57.195312 72.738281 56.082031 C 73.894531 55.453125 74.085938 55.402344 77.066406 55.402344 C 78.800781 55.402344 80.601562 55.476562 81.109375 55.546875 Z M 36.429688 56.515625 C 36.695312 56.683594 37.992188 57.265625 39.316406 57.796875 C 43.691406 59.539062 43.621094 59.515625 43.257812 59.878906 C 43.066406 60.046875 41.839844 60.628906 40.519531 61.183594 C 39.195312 61.71875 37.441406 62.445312 36.597656 62.78125 C 35.15625 63.386719 34.988281 63.410156 33.230469 63.144531 C 26.136719 62.128906 18.996094 60.363281 18.996094 59.636719 C 18.996094 58.984375 26.113281 57.242188 33.664062 56.054688 C 34.507812 55.910156 35.851562 56.152344 36.429688 56.515625 Z M 52.878906 56.25 C 54.222656 56.953125 53.984375 57.992188 52.539062 57.75 C 51.652344 57.605469 50.015625 56.539062 50.015625 56.105469 C 50.015625 55.765625 52.132812 55.839844 52.878906 56.25 Z M 70.457031 56.128906 C 70.457031 56.539062 68.21875 57.824219 67.496094 57.824219 C 66.535156 57.824219 66.367188 57.144531 67.183594 56.445312 C 67.691406 56.007812 68.121094 55.886719 69.15625 55.886719 C 69.878906 55.886719 70.457031 55.984375 70.457031 56.128906 Z M 89.257812 56.492188 C 94.308594 57.316406 101.042969 59.007812 101.378906 59.539062 C 101.761719 60.195312 93.753906 62.226562 87.167969 63.144531 L 85.242188 63.410156 L 83.199219 62.539062 C 82.070312 62.054688 80.84375 61.523438 80.433594 61.355469 C 80.050781 61.183594 79.039062 60.796875 78.222656 60.484375 C 76.082031 59.710938 76.179688 59.492188 79.230469 58.425781 C 80.289062 58.066406 81.851562 57.410156 82.71875 57 C 84.042969 56.394531 84.859375 56.03125 85.339844 55.910156 C 85.386719 55.886719 87.144531 56.152344 89.257812 56.492188 Z M 53.09375 59.371094 C 53.550781 59.832031 52.851562 60.484375 51.867188 60.484375 C 49.96875 60.484375 48.40625 59.46875 49.847656 59.175781 C 50.136719 59.105469 50.59375 59.007812 50.859375 58.933594 C 51.578125 58.765625 52.734375 59.007812 53.09375 59.371094 Z M 70.769531 59.324219 C 71.464844 59.683594 71.222656 59.953125 69.878906 60.265625 C 68.21875 60.628906 67.28125 60.410156 67.378906 59.683594 C 67.496094 58.863281 69.46875 58.644531 70.769531 59.324219 Z M 18.875 61.183594 C 21.449219 62.082031 26.523438 63.289062 30.417969 63.945312 C 31.886719 64.183594 32.367188 64.355469 32.414062 64.667969 C 32.460938 64.886719 32.390625 65.082031 32.269531 65.082031 C 31.574219 65.082031 23.804688 69.96875 20.488281 72.460938 C 18.179688 74.226562 18.492188 74.152344 13.945312 73.789062 C 8.824219 73.402344 5.554688 72.433594 3.894531 70.816406 C 1.5625 68.566406 4.59375 65.203125 11.925781 61.984375 C 13.371094 61.332031 14.765625 60.703125 15.027344 60.53125 C 15.75 60.121094 15.992188 60.167969 18.875 61.183594 Z M 75.070312 60.460938 C 75.382812 60.582031 76.972656 61.210938 78.628906 61.839844 C 80.289062 62.46875 81.734375 63.074219 81.878906 63.167969 C 82.453125 63.726562 81.421875 63.894531 77.644531 63.894531 L 73.726562 63.871094 L 72.066406 62.878906 C 70.023438 61.644531 70.023438 61.257812 72.019531 60.675781 C 73.726562 60.21875 74.328125 60.167969 75.070312 60.460938 Z M 48.550781 60.75 C 50.519531 61.160156 50.425781 61.667969 48.117188 63.023438 L 46.554688 63.945312 L 42.609375 63.945312 C 38.761719 63.917969 37.871094 63.75 38.546875 63.195312 C 38.785156 62.976562 42.539062 61.453125 44.726562 60.652344 C 45.351562 60.433594 47.296875 60.484375 48.550781 60.75 Z M 108.039062 61.816406 C 113.28125 64.160156 116.285156 66.410156 116.886719 68.492188 C 117.128906 69.289062 117.128906 69.582031 116.792969 70.28125 C 115.925781 72.121094 111.984375 73.425781 105.898438 73.839844 L 102.027344 74.105469 L 99.648438 72.289062 C 95.800781 69.363281 93.226562 67.742188 88.683594 65.394531 C 88.03125 65.054688 87.527344 64.695312 87.527344 64.574219 C 87.527344 64.355469 87.648438 64.332031 90.171875 63.871094 C 91.039062 63.703125 92.769531 63.363281 94.019531 63.097656 C 95.269531 62.832031 96.738281 62.515625 97.265625 62.394531 C 98.636719 62.105469 102.195312 61.066406 102.917969 60.75 C 103.925781 60.316406 105.347656 60.605469 108.039062 61.816406 Z M 53.550781 62.082031 C 53.839844 62.832031 51.628906 63.847656 50.402344 63.53125 C 49.582031 63.339844 49.800781 62.855469 51.050781 62.226562 C 52.300781 61.597656 53.335938 61.546875 53.550781 62.082031 Z M 69.78125 62.539062 C 70.886719 63.289062 70.792969 63.628906 69.421875 63.628906 C 67.835938 63.628906 66.367188 62.515625 67.039062 61.839844 C 67.351562 61.523438 68.796875 61.886719 69.78125 62.539062 Z M 54.945312 64.113281 C 55.1875 64.5 54.390625 65.734375 53.550781 66.265625 C 51.769531 67.355469 51.363281 66.507812 52.851562 64.886719 C 53.742188 63.917969 54.632812 63.582031 54.945312 64.113281 Z M 66.824219 64.234375 C 67.691406 64.667969 68.699219 66.484375 68.195312 66.675781 C 67.761719 66.847656 66.414062 66.144531 65.839844 65.46875 C 65.308594 64.839844 65.261719 63.871094 65.765625 63.871094 C 65.984375 63.871094 66.464844 64.039062 66.824219 64.234375 Z M 51.171875 64.910156 C 51.265625 65.417969 49.679688 67.5 48.695312 68.175781 C 47.707031 68.878906 41.359375 70.984375 41.09375 70.71875 C 40.832031 70.453125 42.371094 68.832031 44.992188 66.628906 C 46.914062 65.03125 47.082031 64.960938 48.8125 64.695312 C 50.90625 64.355469 51.074219 64.378906 51.171875 64.910156 Z M 73.75 65.417969 C 74.183594 65.710938 75.601562 66.894531 76.949219 68.082031 C 79.183594 70.066406 79.808594 70.886719 79.015625 70.886719 C 78.628906 70.886719 72.835938 68.832031 72.019531 68.394531 C 71.296875 68.03125 69.011719 65.347656 69.011719 64.886719 C 69.011719 64.304688 72.761719 64.71875 73.75 65.417969 Z M 43.835938 65.007812 C 44.652344 65.152344 44.675781 65.636719 43.882812 66.144531 C 43.570312 66.363281 43.066406 66.773438 42.753906 67.089844 C 42.441406 67.402344 41.238281 68.589844 40.035156 69.726562 C 37.945312 71.710938 37.800781 71.78125 36.070312 72.195312 C 30.371094 73.5 21.402344 74.273438 21.402344 73.425781 C 21.402344 72.824219 25.632812 70.015625 30.777344 67.183594 C 31.644531 66.726562 32.941406 66 33.664062 65.613281 L 34.988281 64.886719 L 39.074219 64.886719 C 41.335938 64.886719 43.453125 64.933594 43.835938 65.007812 Z M 88.488281 66.507812 C 95.152344 70.234375 99.550781 73.304688 98.855469 73.765625 C 98.011719 74.324219 86.757812 72.96875 83.007812 71.878906 C 82.503906 71.734375 81.132812 70.597656 79.207031 68.734375 C 77.546875 67.113281 76.082031 65.804688 75.960938 65.804688 C 75.625 65.804688 75.695312 65.128906 76.058594 64.984375 C 76.203125 64.910156 78.460938 64.886719 81.035156 64.910156 L 85.722656 64.984375 Z M 56.867188 66.074219 C 57.085938 66.703125 55.882812 68.710938 55.136719 68.976562 C 54.632812 69.167969 54.585938 69.097656 54.585938 68.445312 C 54.585938 67.621094 54.898438 66.894531 55.617188 66.097656 C 56.242188 65.417969 56.675781 65.417969 56.867188 66.074219 Z M 64.996094 66.316406 C 65.238281 66.675781 65.527344 67.476562 65.574219 68.082031 L 65.71875 69.21875 L 65.117188 68.925781 C 64.445312 68.636719 63.480469 67.113281 63.480469 66.363281 C 63.480469 65.347656 64.25 65.324219 64.996094 66.316406 Z M 59.464844 66.894531 C 59.660156 67.378906 59.058594 69.652344 58.601562 70.089844 C 58.046875 70.667969 57.710938 70.257812 57.710938 68.976562 C 57.710938 67.304688 59.03125 65.734375 59.464844 66.894531 Z M 62.136719 67.066406 C 62.6875 67.839844 62.59375 70.402344 62.015625 70.402344 C 61.652344 70.402344 61.054688 68.953125 60.910156 67.71875 C 60.789062 66.628906 60.8125 66.53125 61.269531 66.53125 C 61.535156 66.53125 61.941406 66.773438 62.136719 67.066406 Z M 53.503906 67.71875 C 53.695312 68.082031 52.878906 70.933594 52.347656 71.613281 C 51.769531 72.386719 46.625 76.453125 46.242188 76.453125 C 45.6875 76.453125 45.902344 75.773438 47.394531 73.015625 C 49.320312 69.484375 49.535156 69.21875 51.289062 68.296875 C 52.878906 67.476562 53.261719 67.378906 53.503906 67.71875 Z M 68.84375 68.226562 C 70.648438 69.097656 70.863281 69.316406 71.898438 71.25 C 72.304688 72.046875 72.933594 73.136719 73.246094 73.667969 C 74.230469 75.339844 74.589844 76.453125 74.132812 76.453125 C 73.652344 76.425781 70.695312 74.203125 68.722656 72.339844 C 67.785156 71.445312 67.519531 70.984375 67.207031 69.796875 C 66.800781 68.175781 66.753906 67.5 67.066406 67.5 C 67.183594 67.5 67.976562 67.839844 68.84375 68.226562 Z M 56.773438 70.089844 C 56.917969 70.476562 56.988281 71.492188 56.941406 72.363281 C 56.867188 73.863281 56.75 74.105469 54.945312 77.054688 C 53.886719 78.773438 52.878906 80.203125 52.710938 80.273438 C 52.300781 80.394531 52.566406 76.742188 53.191406 73.984375 C 53.621094 72.074219 53.765625 71.734375 54.777344 70.667969 C 55.402344 70.015625 56.050781 69.484375 56.21875 69.460938 C 56.386719 69.460938 56.628906 69.726562 56.773438 70.089844 Z M 65.550781 70.816406 C 66.777344 72.167969 66.824219 72.242188 67.089844 74.273438 C 67.234375 75.410156 67.519531 77.175781 67.738281 78.242188 C 68.242188 80.902344 67.90625 81.046875 66.390625 78.773438 C 65.71875 77.78125 65.164062 76.910156 65.164062 76.839844 C 65.164062 76.789062 64.78125 76.066406 64.300781 75.242188 C 63.578125 74.054688 63.386719 73.476562 63.289062 72.121094 C 63.191406 70.476562 63.457031 69.433594 64.011719 69.433594 C 64.15625 69.433594 64.851562 70.066406 65.550781 70.816406 Z M 61.269531 71.683594 C 61.941406 73.523438 61.917969 74.683594 61.101562 78.507812 C 60.117188 83.175781 59.707031 82.765625 58.769531 76.210938 L 58.359375 73.425781 L 59.03125 71.734375 C 60.042969 69.195312 60.355469 69.195312 61.269531 71.683594 Z M 47.371094 70.546875 C 47.371094 70.765625 47.011719 71.566406 46.554688 72.316406 C 46.097656 73.066406 45.230469 74.734375 44.605469 76.015625 L 43.5 78.363281 L 40.949219 79.984375 C 37.921875 81.917969 29.695312 86.128906 28.925781 86.128906 C 28.015625 86.128906 28.109375 85.886719 30.394531 82.5 C 30.777344 81.894531 31.1875 81.363281 31.261719 81.289062 C 31.355469 81.21875 32.246094 80.128906 33.230469 78.871094 C 34.242188 77.613281 35.851562 75.726562 36.839844 74.683594 C 38.496094 72.894531 38.691406 72.773438 40.398438 72.316406 C 41.382812 72.023438 43.1875 71.445312 44.363281 71.007812 C 46.867188 70.089844 47.371094 70.015625 47.371094 70.546875 Z M 76.347656 71.203125 C 77.8125 71.683594 79.617188 72.265625 80.363281 72.460938 C 81.515625 72.796875 81.949219 73.089844 83.222656 74.445312 C 87.527344 79.089844 92.410156 85.667969 91.902344 86.175781 C 91.617188 86.46875 89.425781 85.523438 84.882812 83.152344 C 80.988281 81.121094 78.269531 79.5 77.355469 78.652344 C 76.972656 78.316406 76.179688 76.984375 75.554688 75.726562 C 74.953125 74.46875 74.15625 72.917969 73.773438 72.316406 C 73.074219 71.152344 72.859375 70.015625 73.414062 70.210938 C 73.558594 70.28125 74.902344 70.71875 76.347656 71.203125 Z M 35.492188 73.910156 C 35.589844 74.152344 35.082031 74.925781 34.097656 76.039062 C 32.316406 78.023438 30.371094 80.589844 28.015625 84.074219 C 25.777344 87.363281 25.65625 87.484375 23.828125 88.015625 C 19.210938 89.394531 17.9375 89.613281 15.027344 89.636719 C 12.480469 89.636719 12.023438 89.566406 11.132812 89.082031 C 10.460938 88.742188 10.050781 88.332031 9.957031 87.917969 C 9.449219 85.886719 11.0625 82.816406 14.644531 79.089844 C 18.226562 75.339844 18.25 75.316406 21.882812 75.121094 C 25.535156 74.925781 30.539062 74.394531 32.824219 73.933594 C 35.058594 73.476562 35.347656 73.476562 35.492188 73.910156 Z M 88.371094 74.105469 C 92.289062 74.734375 94.667969 74.976562 98.109375 75.144531 C 99.910156 75.242188 101.617188 75.433594 101.957031 75.605469 C 102.84375 76.066406 107.726562 81.195312 108.761719 82.765625 C 110.539062 85.476562 110.925781 87.554688 109.890625 88.667969 C 108.542969 90.097656 103.878906 90.046875 98.347656 88.523438 C 97.363281 88.257812 96.183594 87.945312 95.75 87.824219 C 94.742188 87.582031 93.996094 86.878906 93.011719 85.304688 C 90.316406 80.925781 88.585938 78.605469 85.773438 75.53125 C 84.355469 73.984375 84.210938 73.402344 85.339844 73.621094 C 85.675781 73.695312 87.046875 73.910156 88.371094 74.105469 Z M 70.191406 74.953125 C 70.9375 75.582031 72.234375 76.597656 73.101562 77.175781 C 75.816406 79.039062 76.058594 79.332031 77.066406 82.136719 C 80.144531 90.53125 81.324219 94.644531 80.820312 95.152344 C 80.363281 95.613281 72.402344 87.21875 70 83.757812 C 69.566406 83.128906 69.398438 82.453125 69.230469 80.371094 C 69.109375 78.945312 68.84375 77.054688 68.628906 76.160156 C 68.265625 74.660156 68.289062 73.789062 68.675781 73.789062 C 68.773438 73.789062 69.46875 74.324219 70.191406 74.953125 Z M 51.941406 74.324219 C 51.941406 74.492188 51.796875 75.605469 51.601562 76.816406 C 51.410156 78 51.195312 79.816406 51.097656 80.804688 C 50.976562 82.160156 50.785156 82.863281 50.304688 83.589844 C 49.054688 85.546875 45.757812 89.445312 42.753906 92.515625 C 39.242188 96.097656 38.882812 96.195312 39.53125 93.460938 C 40.492188 89.445312 40.78125 88.476562 41.960938 85.402344 C 42.65625 83.613281 43.355469 81.75 43.5 81.289062 C 43.980469 79.742188 44.703125 78.871094 46.410156 77.78125 C 47.324219 77.175781 48.765625 76.089844 49.582031 75.363281 C 51.027344 74.082031 51.941406 73.695312 51.941406 74.324219 Z M 57.808594 77.78125 C 57.878906 78.628906 58.289062 80.445312 58.671875 81.824219 C 59.082031 83.203125 59.394531 84.507812 59.394531 84.75 C 59.394531 85.886719 55.8125 95.371094 54.175781 98.515625 C 53.261719 100.257812 52.972656 100.5 52.804688 99.605469 C 52.757812 99.316406 52.566406 98.46875 52.394531 97.742188 C 52.226562 96.945312 52.058594 93.847656 52.011719 90 L 51.890625 83.589844 L 53.308594 81.582031 C 54.078125 80.492188 55.234375 78.726562 55.882812 77.660156 C 57.253906 75.386719 57.566406 75.410156 57.808594 77.78125 Z M 64.226562 77.46875 C 64.636719 78.289062 65.695312 79.933594 66.582031 81.144531 L 68.171875 83.347656 L 68.242188 88.546875 C 68.339844 95.492188 67.808594 101.007812 67.089844 100.257812 C 66.199219 99.339844 62.664062 90.894531 61.4375 86.710938 L 60.789062 84.53125 L 61.511719 82.113281 C 61.917969 80.804688 62.304688 79.160156 62.375 78.507812 C 62.785156 75.433594 63.097656 75.242188 64.226562 77.46875 Z M 42.082031 81.265625 C 42.082031 81.53125 41.550781 83.175781 40.902344 84.96875 C 40.253906 86.734375 39.507812 89.007812 39.242188 90 C 38.425781 92.902344 37.824219 95.371094 37.65625 96.339844 C 37.488281 97.28125 37.101562 97.667969 34.335938 99.75 C 30.921875 102.265625 27.125 104.03125 25.082031 104.03125 C 23.804688 104.03125 22.652344 103.210938 22.460938 102.167969 C 22.21875 100.839844 22.53125 97.789062 23.085938 96.167969 C 23.347656 95.371094 24.261719 93.289062 25.128906 91.574219 C 26.257812 89.226562 26.859375 88.304688 27.386719 87.992188 C 27.773438 87.773438 28.207031 87.582031 28.375 87.582031 C 29.144531 87.582031 37.101562 83.683594 39.917969 81.917969 C 40.902344 81.316406 41.792969 80.804688 41.886719 80.804688 C 41.984375 80.804688 42.082031 81.023438 42.082031 81.265625 Z M 79.375 81.363281 C 80.21875 81.917969 82.140625 83.007812 84.882812 84.484375 C 85.75 84.945312 87.695312 85.839844 89.210938 86.46875 C 93.875 88.425781 93.515625 88.136719 94.910156 90.847656 C 97.964844 96.726562 98.828125 101.925781 97.003906 103.5 C 96.425781 104.007812 96.160156 104.082031 94.886719 103.984375 C 92.53125 103.839844 88.609375 101.855469 84.929688 98.925781 C 82.984375 97.378906 82.644531 96.945312 82.359375 95.566406 C 81.683594 92.105469 80.097656 86.445312 79.183594 84.265625 C 78.582031 82.839844 78.054688 81.460938 77.980469 81.21875 C 77.8125 80.636719 78.390625 80.683594 79.375 81.363281 Z M 50.832031 86.25 C 50.90625 86.566406 50.976562 89.105469 50.976562 91.886719 C 50.953125 96.53125 51.121094 98.636719 51.722656 101.324219 C 52.035156 102.796875 51.675781 103.476562 48.09375 108.144531 C 43.621094 114 39.964844 115.089844 38.570312 110.976562 C 38.066406 109.546875 37.945312 104.175781 38.328125 100.304688 L 38.523438 98.128906 L 42.417969 94.257812 C 44.582031 92.105469 47.226562 89.296875 48.308594 87.992188 C 49.414062 86.710938 50.375 85.644531 50.496094 85.644531 C 50.59375 85.644531 50.761719 85.910156 50.832031 86.25 Z M 71.96875 87.992188 C 73.820312 90.144531 79.230469 95.660156 80.867188 97.039062 C 81.78125 97.816406 81.972656 98.804688 82.140625 103.933594 C 82.285156 107.710938 82.261719 108.554688 81.878906 110.105469 C 81.539062 111.484375 81.25 112.089844 80.625 112.71875 C 79.882812 113.46875 79.738281 113.515625 78.726562 113.371094 C 76.417969 113.054688 73.316406 110.203125 70.167969 105.433594 C 68.265625 102.605469 68.363281 103.257812 69.109375 97.5 C 69.347656 95.636719 69.492188 92.878906 69.492188 90.363281 C 69.46875 85.257812 69.445312 85.644531 69.710938 85.644531 C 69.855469 85.644531 70.863281 86.710938 71.96875 87.992188 Z M 60.5 87.605469 C 60.597656 87.75 60.742188 88.210938 60.859375 88.644531 C 61.125 89.734375 62.976562 94.644531 63.242188 94.960938 C 63.363281 95.105469 63.84375 96.121094 64.300781 97.234375 C 64.757812 98.347656 65.574219 99.992188 66.125 100.886719 C 66.679688 101.855469 67.089844 102.847656 67.089844 103.28125 C 67.089844 104.515625 64.949219 111.554688 64.035156 113.273438 C 63.578125 114.167969 62.710938 115.355469 62.136719 115.886719 C 61.246094 116.710938 60.933594 116.855469 60.066406 116.855469 C 59.152344 116.855469 58.9375 116.734375 57.710938 115.453125 C 56.605469 114.316406 56.21875 113.683594 55.5 111.773438 C 55.015625 110.515625 54.417969 108.484375 54.128906 107.296875 C 53.839844 106.089844 53.503906 104.683594 53.359375 104.152344 C 53.117188 103.234375 53.191406 103.039062 55.015625 99.316406 C 56.507812 96.289062 59.394531 89.296875 59.394531 88.695312 C 59.394531 88.621094 59.488281 88.304688 59.632812 87.96875 C 59.875 87.289062 60.210938 87.167969 60.5 87.605469 Z M 60.5 87.605469 "/>
</g>
</svg>
